# xmcd
#
# Track frame offsets: 
#        150
#        27600
#        43240
#        62968
#        78305
#        106882
#        120720
#        138571
#        155102
#        182817
#
# Disc length: 2799 seconds
#
# Revision: 1
# Processed by: cddbd v1.5.2PL0 Copyright (c) Steve Scherf et al.
# Submitted via: ExactAudioCopyFreeDBPlugin 1.0
#
DISCID=920aed0a
DTITLE=Leon Haywood - It's Me Again [Boogie Times Records BTR 7009]
DYEAR=1983
DGENRE=Soul Funk
TTITLE0=T.V Mama
TTITLE1=Desire
TTITLE2=I'll always be around
TTITLE3=Secret Rendez-vous
TTITLE4=I'm out to catch
TTITLE5=Keep it in the family
TTITLE6=I wanna do something freaky
TTITLE7=Steppin out
TTITLE8=I'm out to catch (Club Mix)
TTITLE9=Tenderoni
EXTD=
EXTT0=
EXTT1=
EXTT2=
EXTT3=
EXTT4=
EXTT5=
EXTT6=
EXTT7=
EXTT8=
EXTT9=
PLAYORDER=
